<svg width="48" height="48" viewBox="0 0 48 48" fill="none" xmlns="http://www.w3.org/2000/svg">
<g filter="url(#filter0_b_91_1022)">
<path d="M0 24C0 10.7452 10.7452 0 24 0V0C37.2548 0 48 10.7452 48 24V24C48 37.2548 37.2548 48 24 48V48C10.7452 48 0 37.2548 0 24V24Z" fill="black" fill-opacity="0.25"/>
<g filter="url(#filter1_d_91_1022)">
<path d="M21.5212 25.2766L21.553 25.0213C21.553 24.1064 21.8072 23.383 22.3157 22.8511C22.8453 22.3191 23.4174 21.9681 24.0318 21.7979C24.6462 21.6277 25.2076 21.3404 25.7161 20.9362C26.2458 20.5319 26.5106 19.9894 26.5106 19.3085C26.5106 18.6064 26.3093 18.0638 25.9068 17.6809C25.5254 17.2979 24.9428 17.1064 24.1589 17.1064C23.375 17.1064 22.7924 17.234 22.411 17.4894C22.0508 17.7234 21.8284 17.9681 21.7436 18.2234L21.6483 18.6064C21.4576 19.1596 21.2352 19.5851 20.9809 19.883C20.7267 20.1596 20.3983 20.2979 19.9958 20.2979C19.5932 20.2979 19.0636 20.1702 18.4068 19.9149C17.1356 19.4255 16.5 18.8191 16.5 18.0957C16.5 17.7766 16.5636 17.4574 16.6907 17.1383C16.8178 16.7979 16.9237 16.5213 17.0085 16.3085C17.0932 16.0745 17.3157 15.6809 17.6758 15.1277C18.0572 14.5745 18.4809 14.0957 18.947 13.6915C19.4343 13.266 20.1123 12.883 20.9809 12.5426C21.8496 12.1809 22.8136 12 23.8729 12C26.1186 12 27.9513 12.7234 29.3708 14.1702C30.7903 15.617 31.5 17.2979 31.5 19.2128C31.5 20.1277 31.3305 20.9787 30.9915 21.766C30.6737 22.5319 30.2818 23.1383 29.8157 23.5851C28.8835 24.4787 28.0148 25.0745 27.2097 25.3723L26.7013 25.5319C26.7013 25.8936 26.6801 26.1702 26.6377 26.3617C26.6165 26.5532 26.5212 26.766 26.3517 27C26.2034 27.2128 25.9386 27.3723 25.5572 27.4787C25.197 27.5638 24.7097 27.6064 24.0953 27.6064C23.4809 27.6064 22.9831 27.5532 22.6017 27.4468C22.2415 27.3404 21.9873 27.1596 21.839 26.9043C21.6907 26.6489 21.5953 26.4255 21.553 26.234C21.5318 26.0213 21.5212 25.7021 21.5212 25.2766ZM21.3941 30.9894C21.5636 30.6489 21.8602 30.4043 22.2839 30.2553C22.7288 30.1064 23.4174 30.0319 24.3496 30.0319C25.2818 30.0319 25.9492 30.2447 26.3517 30.6702C26.7754 31.0745 26.9873 31.8723 26.9873 33.0638C26.9873 33.9149 26.8814 34.5532 26.6695 34.9787C26.4576 35.383 26.1292 35.6596 25.6843 35.8085C25.2606 35.9362 24.5932 36 23.6822 36C22.7712 36 22.072 35.7766 21.5847 35.3298C21.2246 34.9681 21.0445 34.3511 21.0445 33.4787V32.9681C21.0445 32.4787 21.0551 32.1064 21.0763 31.8511C21.1186 31.5957 21.2246 31.3085 21.3941 30.9894Z" fill="white"/>
</g>
</g>
<defs>
<filter id="filter0_b_91_1022" x="-26" y="-26" width="100" height="100" filterUnits="userSpaceOnUse" color-interpolation-filters="sRGB">
<feFlood flood-opacity="0" result="BackgroundImageFix"/>
<feGaussianBlur in="BackgroundImage" stdDeviation="13"/>
<feComposite in2="SourceAlpha" operator="in" result="effect1_backgroundBlur_91_1022"/>
<feBlend mode="normal" in="SourceGraphic" in2="effect1_backgroundBlur_91_1022" result="shape"/>
</filter>
<filter id="filter1_d_91_1022" x="13.5" y="9" width="21" height="30" filterUnits="userSpaceOnUse" color-interpolation-filters="sRGB">
<feFlood flood-opacity="0" result="BackgroundImageFix"/>
<feColorMatrix in="SourceAlpha" type="matrix" values="0 0 0 0 0 0 0 0 0 0 0 0 0 0 0 0 0 0 127 0" result="hardAlpha"/>
<feOffset/>
<feGaussianBlur stdDeviation="1.5"/>
<feComposite in2="hardAlpha" operator="out"/>
<feColorMatrix type="matrix" values="0 0 0 0 1 0 0 0 0 1 0 0 0 0 1 0 0 0 1 0"/>
<feBlend mode="normal" in2="BackgroundImageFix" result="effect1_dropShadow_91_1022"/>
<feBlend mode="normal" in="SourceGraphic" in2="effect1_dropShadow_91_1022" result="shape"/>
</filter>
</defs>
</svg>
