<svg width="48" height="48" viewBox="0 0 48 48" fill="none" xmlns="http://www.w3.org/2000/svg">
<g filter="url(#filter0_b_128_5653)">
<path d="M0 24C0 10.7452 10.7452 0 24 0C37.2548 0 48 10.7452 48 24C48 37.2548 37.2548 48 24 48C10.7452 48 0 37.2548 0 24Z" fill="black" fill-opacity="0.24"/>
<g filter="url(#filter1_d_128_5653)">
<path d="M8.71948 26.4239L16.6346 34.339L18.3541 36.0374C19.2536 36.9368 20.7527 36.9368 21.712 36.0374L28.339 29.3503L31.6969 25.9925L39.672 18.0773C40.5714 17.118 40.5714 15.6189 39.672 14.7195C38.7126 13.7602 37.2135 13.7602 36.3141 14.7195L19.9925 30.9812L12.0773 23.0661C11.118 22.1067 9.61893 22.1067 8.71948 23.0661C7.76016 23.9655 7.76016 25.4646 8.71948 26.4239Z" fill="white"/>
</g>
</g>
<defs>
<filter id="filter0_b_128_5653" x="-26" y="-26" width="100" height="100" filterUnits="userSpaceOnUse" color-interpolation-filters="sRGB">
<feFlood flood-opacity="0" result="BackgroundImageFix"/>
<feGaussianBlur in="BackgroundImage" stdDeviation="13"/>
<feComposite in2="SourceAlpha" operator="in" result="effect1_backgroundBlur_128_5653"/>
<feBlend mode="normal" in="SourceGraphic" in2="effect1_backgroundBlur_128_5653" result="shape"/>
</filter>
<filter id="filter1_d_128_5653" x="5" y="11" width="38.3467" height="28.7119" filterUnits="userSpaceOnUse" color-interpolation-filters="sRGB">
<feFlood flood-opacity="0" result="BackgroundImageFix"/>
<feColorMatrix in="SourceAlpha" type="matrix" values="0 0 0 0 0 0 0 0 0 0 0 0 0 0 0 0 0 0 127 0" result="hardAlpha"/>
<feOffset/>
<feGaussianBlur stdDeviation="1.5"/>
<feComposite in2="hardAlpha" operator="out"/>
<feColorMatrix type="matrix" values="0 0 0 0 1 0 0 0 0 1 0 0 0 0 1 0 0 0 1 0"/>
<feBlend mode="normal" in2="BackgroundImageFix" result="effect1_dropShadow_128_5653"/>
<feBlend mode="normal" in="SourceGraphic" in2="effect1_dropShadow_128_5653" result="shape"/>
</filter>
</defs>
</svg>
