<svg width="48" height="48" viewBox="0 0 48 48" fill="none" xmlns="http://www.w3.org/2000/svg">
<g filter="url(#filter0_b_128_5366)">
<path d="M0 24C0 10.7452 10.7452 0 24 0C37.2548 0 48 10.7452 48 24C48 37.2548 37.2548 48 24 48C10.7452 48 0 37.2548 0 24Z" fill="black" fill-opacity="0.24"/>
<g filter="url(#filter1_d_128_5366)">
<path d="M32.2868 15.3226C31.117 14.1939 29.7278 13.3179 28.2054 12.7489C26.6828 12.1798 25.0594 11.9301 23.4362 12.0148C20.4569 12.1697 17.6405 13.4229 15.531 15.5326C13.4213 17.6421 12.1681 20.4585 12.0132 23.4378C11.9113 25.6055 12.3992 27.7602 13.4247 29.6728C14.4503 31.5853 15.9753 33.1838 17.8373 34.298C19.6995 35.4125 21.8288 36.0011 23.999 36.0013H24.0065C24.3552 36.0013 24.6972 35.9065 24.9958 35.7267C25.2945 35.547 25.5386 35.2891 25.7017 34.9812C25.8646 34.6902 25.9445 34.36 25.9326 34.0266C25.9206 33.6932 25.8174 33.3697 25.6341 33.0911C24.7793 31.7949 24.5251 30.193 24.9366 28.6958C25.1875 27.7379 25.7034 26.8702 26.4251 26.1921C27.1469 25.5142 28.0451 25.0536 29.0168 24.8632C30.4047 24.5731 31.8513 24.8398 33.0446 25.6056C33.3351 25.7938 33.6709 25.9 34.0169 25.9132C34.3627 25.9264 34.7057 25.8461 35.0097 25.6806C35.3127 25.518 35.5653 25.2754 35.7399 24.9791C35.9146 24.6829 36.0044 24.3444 35.9998 24.0005C36.0051 22.3773 35.6787 20.7701 35.0402 19.2779C34.4017 17.7856 33.4649 16.4395 32.2871 15.3226L32.2868 15.3226ZM15.8159 24.0008C15.8168 23.5943 15.979 23.205 16.267 22.9181C16.5548 22.6313 16.9447 22.4704 17.3509 22.4706C17.7574 22.471 18.1469 22.6326 18.4343 22.92C18.7217 23.2072 18.8831 23.5969 18.8835 24.0032C18.8839 24.4097 18.723 24.7996 18.436 25.0873C18.1491 25.3751 17.7598 25.5373 17.3536 25.5384C16.9458 25.5379 16.5551 25.3757 16.2668 25.0873C15.9786 24.7992 15.8165 24.4083 15.8159 24.0008L15.8159 24.0008ZM20.3837 29.7834C20.0963 30.0708 19.7064 30.2323 19.2998 30.2323C18.8933 30.2323 18.5034 30.0708 18.216 29.7834C17.9286 29.496 17.7672 29.1061 17.7672 28.6997C17.7672 28.293 17.9286 27.9033 18.216 27.6157C18.5034 27.3283 18.8933 27.1669 19.2998 27.1669C19.7064 27.1669 20.0963 27.3283 20.3837 27.6159C20.6717 27.903 20.8336 28.2928 20.8336 28.6997C20.8336 29.1063 20.6717 29.4964 20.3837 29.7835V29.7834ZM20.3837 20.3854C20.0963 20.6729 19.7064 20.8343 19.2998 20.8343C18.8933 20.8343 18.5034 20.6729 18.216 20.3854C17.9286 20.098 17.767 19.7081 17.767 19.3015C17.767 18.8951 17.9286 18.5052 18.216 18.2177C18.5034 17.9303 18.8933 17.7687 19.2998 17.7689C19.7064 17.7689 20.0963 17.9303 20.3837 18.2177C20.6717 18.5048 20.8336 18.8948 20.8336 19.3015C20.8336 19.7083 20.6717 20.0982 20.3837 20.3854ZM23.9989 18.8854V18.8853C23.592 18.8843 23.2023 18.7218 22.9153 18.4334C22.6284 18.145 22.4678 17.7546 22.4687 17.3478C22.4698 16.9409 22.6324 16.5512 22.9207 16.2642C23.2091 15.9773 23.5995 15.8167 24.0064 15.8176C24.4132 15.8185 24.8029 15.9811 25.0898 16.2694C25.3768 16.5578 25.5375 16.9484 25.5365 17.3553C25.5356 17.7622 25.3731 18.1518 25.0847 18.4389C24.7963 18.7259 24.4057 18.8864 23.9988 18.8853L23.9989 18.8854ZM29.7815 20.3854C29.4941 20.6729 29.1042 20.8343 28.6978 20.8343C28.2911 20.8343 27.9012 20.6729 27.6138 20.3854C27.3264 20.098 27.165 19.7081 27.165 19.3015C27.165 18.8951 27.3264 18.5052 27.6138 18.2177C27.9013 17.9303 28.2911 17.7687 28.6978 17.7689C29.1042 17.7689 29.4941 17.9303 29.7815 18.2177C30.0697 18.5048 30.2315 18.8948 30.2315 19.3015C30.2315 19.7083 30.0697 20.0982 29.7815 20.3854Z" fill="white"/>
</g>
</g>
<defs>
<filter id="filter0_b_128_5366" x="-26" y="-26" width="100" height="100" filterUnits="userSpaceOnUse" color-interpolation-filters="sRGB">
<feFlood flood-opacity="0" result="BackgroundImageFix"/>
<feGaussianBlur in="BackgroundImage" stdDeviation="13"/>
<feComposite in2="SourceAlpha" operator="in" result="effect1_backgroundBlur_128_5366"/>
<feBlend mode="normal" in="SourceGraphic" in2="effect1_backgroundBlur_128_5366" result="shape"/>
</filter>
<filter id="filter1_d_128_5366" x="9" y="8.99872" width="30" height="30.0026" filterUnits="userSpaceOnUse" color-interpolation-filters="sRGB">
<feFlood flood-opacity="0" result="BackgroundImageFix"/>
<feColorMatrix in="SourceAlpha" type="matrix" values="0 0 0 0 0 0 0 0 0 0 0 0 0 0 0 0 0 0 127 0" result="hardAlpha"/>
<feOffset/>
<feGaussianBlur stdDeviation="1.5"/>
<feComposite in2="hardAlpha" operator="out"/>
<feColorMatrix type="matrix" values="0 0 0 0 1 0 0 0 0 1 0 0 0 0 1 0 0 0 1 0"/>
<feBlend mode="normal" in2="BackgroundImageFix" result="effect1_dropShadow_128_5366"/>
<feBlend mode="normal" in="SourceGraphic" in2="effect1_dropShadow_128_5366" result="shape"/>
</filter>
</defs>
</svg>
