<svg width="48" height="48" viewBox="0 0 48 48" fill="none" xmlns="http://www.w3.org/2000/svg">
<g filter="url(#filter0_b_354_2812)">
<path d="M0 24C0 10.7452 10.7452 0 24 0C37.2548 0 48 10.7452 48 24C48 37.2548 37.2548 48 24 48C10.7452 48 0 37.2548 0 24Z" fill="black" fill-opacity="0.5"/>
<g filter="url(#filter1_d_354_2812)">
<path fill-rule="evenodd" clip-rule="evenodd" d="M12.7195 31.9676L20.6346 23.9925L12.7195 16.0773C11.7602 15.118 11.7602 13.6189 12.7195 12.7195C13.6189 11.7602 15.118 11.7602 16.0773 12.7195L23.9925 20.6346L31.9676 12.7195C32.867 11.7602 34.3661 11.7602 35.3254 12.7195C36.2249 13.6189 36.2249 15.118 35.3254 16.0773L27.3503 23.9925L35.3254 31.9676C36.2249 32.867 36.2249 34.3661 35.3254 35.3254C34.3661 36.2249 32.867 36.2249 31.9676 35.3254L23.9925 27.3503L16.0773 35.3254C15.118 36.2249 13.6189 36.2249 12.7195 35.3254C11.7602 34.3661 11.7602 32.867 12.7195 31.9676Z" fill="white"/>
</g>
</g>
<defs>
<filter id="filter0_b_354_2812" x="-26" y="-26" width="100" height="100" filterUnits="userSpaceOnUse" color-interpolation-filters="sRGB">
<feFlood flood-opacity="0" result="BackgroundImageFix"/>
<feGaussianBlur in="BackgroundImage" stdDeviation="13"/>
<feComposite in2="SourceAlpha" operator="in" result="effect1_backgroundBlur_354_2812"/>
<feBlend mode="normal" in="SourceGraphic" in2="effect1_backgroundBlur_354_2812" result="shape"/>
</filter>
<filter id="filter1_d_354_2812" x="9" y="9" width="30" height="30" filterUnits="userSpaceOnUse" color-interpolation-filters="sRGB">
<feFlood flood-opacity="0" result="BackgroundImageFix"/>
<feColorMatrix in="SourceAlpha" type="matrix" values="0 0 0 0 0 0 0 0 0 0 0 0 0 0 0 0 0 0 127 0" result="hardAlpha"/>
<feOffset/>
<feGaussianBlur stdDeviation="1.5"/>
<feComposite in2="hardAlpha" operator="out"/>
<feColorMatrix type="matrix" values="0 0 0 0 1 0 0 0 0 1 0 0 0 0 1 0 0 0 1 0"/>
<feBlend mode="normal" in2="BackgroundImageFix" result="effect1_dropShadow_354_2812"/>
<feBlend mode="normal" in="SourceGraphic" in2="effect1_dropShadow_354_2812" result="shape"/>
</filter>
</defs>
</svg>
