<svg width="48" height="48" viewBox="0 0 48 48" fill="none" xmlns="http://www.w3.org/2000/svg">
<g filter="url(#filter0_b_117_12934)">
<path d="M0 24C0 10.7452 10.7452 0 24 0C37.2548 0 48 10.7452 48 24C48 37.2548 37.2548 48 24 48C10.7452 48 0 37.2548 0 24Z" fill="black" fill-opacity="0.5"/>
<g filter="url(#filter1_d_117_12934)">
<path fill-rule="evenodd" clip-rule="evenodd" d="M16.3963 33.2189L21.7233 30.811H21.7231C21.8258 30.7656 21.9188 30.7014 21.997 30.6217L35.0172 17.701C36.0112 16.7673 36.4255 15.0639 35.4252 14.0795L32.8061 11.4929L32.8058 11.4931C32.2988 11.0098 31.5816 10.8087 30.894 10.9569C30.2282 11.085 29.6185 11.4134 29.1477 11.8967L16.1282 24.7799C16.0494 24.8616 15.9848 24.9554 15.937 25.0576L12.0814 33.3415C12.0026 33.5196 11.9815 33.7143 12.016 33.9001C12.0055 33.9531 12 34.0079 12 34.064C12 34.5306 12.3821 34.9091 12.853 34.9091H32.5755C33.0465 34.9091 33.4286 34.5306 33.4286 34.064C33.4286 33.5972 33.0465 33.2189 32.5755 33.2189H16.3963Z" fill="white"/>
</g>
</g>
<defs>
<filter id="filter0_b_117_12934" x="-28.3636" y="-28.3636" width="104.727" height="104.727" filterUnits="userSpaceOnUse" color-interpolation-filters="sRGB">
<feFlood flood-opacity="0" result="BackgroundImageFix"/>
<feGaussianBlur in="BackgroundImage" stdDeviation="14.1818"/>
<feComposite in2="SourceAlpha" operator="in" result="effect1_backgroundBlur_117_12934"/>
<feBlend mode="normal" in="SourceGraphic" in2="effect1_backgroundBlur_117_12934" result="shape"/>
</filter>
<filter id="filter1_d_117_12934" x="9" y="7.90909" width="30" height="30" filterUnits="userSpaceOnUse" color-interpolation-filters="sRGB">
<feFlood flood-opacity="0" result="BackgroundImageFix"/>
<feColorMatrix in="SourceAlpha" type="matrix" values="0 0 0 0 0 0 0 0 0 0 0 0 0 0 0 0 0 0 127 0" result="hardAlpha"/>
<feOffset/>
<feGaussianBlur stdDeviation="1.5"/>
<feComposite in2="hardAlpha" operator="out"/>
<feColorMatrix type="matrix" values="0 0 0 0 1 0 0 0 0 1 0 0 0 0 1 0 0 0 1 0"/>
<feBlend mode="normal" in2="BackgroundImageFix" result="effect1_dropShadow_117_12934"/>
<feBlend mode="normal" in="SourceGraphic" in2="effect1_dropShadow_117_12934" result="shape"/>
</filter>
</defs>
</svg>
