<svg width="48" height="48" viewBox="0 0 48 48" fill="none" xmlns="http://www.w3.org/2000/svg">
<g filter="url(#filter0_b_117_2473)">
<path d="M0 24C0 10.7452 10.7452 0 24 0C37.2548 0 48 10.7452 48 24C48 37.2548 37.2548 48 24 48C10.7452 48 0 37.2548 0 24Z" fill="black" fill-opacity="0.24"/>
<g filter="url(#filter1_d_117_2473)">
<path d="M33.6495 21.0999C33.2995 18.75 31.2996 17 28.8496 17C27.8996 17 26.9997 17.3 26.2497 17.75C25.0497 15.7 22.7997 14.3 20.2498 14.3C16.3999 14.3 13.2499 17.45 13.2499 21.2999V21.5999C11.3 22.7499 10 24.8498 10 27.2498C10 30.7997 12.8999 33.7 16.4502 33.7H31.5499C35.0998 33.7 38 30.8 38 27.2498C38 24.3998 36.1501 21.9999 33.6501 21.1002L33.6495 21.0999Z" fill="white"/>
</g>
</g>
<defs>
<filter id="filter0_b_117_2473" x="-26" y="-26" width="100" height="100" filterUnits="userSpaceOnUse" color-interpolation-filters="sRGB">
<feFlood flood-opacity="0" result="BackgroundImageFix"/>
<feGaussianBlur in="BackgroundImage" stdDeviation="13"/>
<feComposite in2="SourceAlpha" operator="in" result="effect1_backgroundBlur_117_2473"/>
<feBlend mode="normal" in="SourceGraphic" in2="effect1_backgroundBlur_117_2473" result="shape"/>
</filter>
<filter id="filter1_d_117_2473" x="7" y="11.3" width="34" height="25.3999" filterUnits="userSpaceOnUse" color-interpolation-filters="sRGB">
<feFlood flood-opacity="0" result="BackgroundImageFix"/>
<feColorMatrix in="SourceAlpha" type="matrix" values="0 0 0 0 0 0 0 0 0 0 0 0 0 0 0 0 0 0 127 0" result="hardAlpha"/>
<feOffset/>
<feGaussianBlur stdDeviation="1.5"/>
<feComposite in2="hardAlpha" operator="out"/>
<feColorMatrix type="matrix" values="0 0 0 0 1 0 0 0 0 1 0 0 0 0 1 0 0 0 1 0"/>
<feBlend mode="normal" in2="BackgroundImageFix" result="effect1_dropShadow_117_2473"/>
<feBlend mode="normal" in="SourceGraphic" in2="effect1_dropShadow_117_2473" result="shape"/>
</filter>
</defs>
</svg>
