<svg width="29" height="20" viewBox="0 0 29 20" fill="none" xmlns="http://www.w3.org/2000/svg">
<path fill-rule="evenodd" clip-rule="evenodd" d="M19.0996 2.99999C21.5496 2.99999 23.5495 4.74996 23.8995 7.09991L23.9001 7.1002C26.4 7.99989 28.25 10.3998 28.25 13.2498C28.25 16.8 25.3498 19.6999 21.7998 19.6999H6.70015C3.14994 19.6999 0.25 16.7997 0.25 13.2498C0.25 10.8498 1.54997 8.74988 3.49993 7.5999V7.29991C3.49993 3.44998 6.64987 0.300049 10.4998 0.300049C13.0497 0.300049 15.2997 1.70002 16.4997 3.74998C17.2497 3.29999 18.1496 2.99999 19.0996 2.99999ZM18.0493 12.7999C17.6493 13.1999 16.9993 13.1999 16.6493 12.7999L15.2493 11.3999V14.9999C15.2493 15.5498 14.7993 15.9998 14.2493 15.9998C13.6993 15.9998 13.2494 15.5498 13.2494 14.9999V11.3999L11.8494 12.7999C11.4494 13.1999 10.8494 13.1999 10.4494 12.7999C10.0494 12.3999 10.0494 11.7999 10.4494 11.3999L13.5493 8.29999C13.7493 8.1 13.9993 8 14.2493 8C14.4993 8 14.7493 8.1 14.9493 8.29999L18.0493 11.3999C18.4492 11.7499 18.4492 12.3999 18.0493 12.7999Z" fill="white"/>
</svg>
