<svg width="29" height="20" viewBox="0 0 29 20" fill="none" xmlns="http://www.w3.org/2000/svg">
<path fill-rule="evenodd" clip-rule="evenodd" d="M19.0996 2.99999C21.5496 2.99999 23.5495 4.74996 23.8995 7.09991L23.9001 7.1002C26.4 7.99989 28.25 10.3998 28.25 13.2498C28.25 16.8 25.3498 19.6999 21.7998 19.6999H6.70015C3.14994 19.6999 0.25 16.7997 0.25 13.2498C0.25 10.8498 1.54997 8.74988 3.49993 7.5999V7.29991C3.49993 3.44999 6.64987 0.300049 10.4998 0.300049C13.0497 0.300049 15.2997 1.70002 16.4997 3.74998C17.2497 3.29999 18.1496 2.99999 19.0996 2.99999ZM10.4497 11.1999C10.8497 10.7999 11.4997 10.7999 11.8497 11.1999L13.2496 12.5999L13.2496 8.99994C13.2496 8.44995 13.6996 7.99995 14.2496 7.99995C14.7996 7.99995 15.2496 8.44995 15.2496 8.99994L15.2496 12.5999L16.6496 11.1999C17.0496 10.7999 17.6496 10.7999 18.0495 11.1999C18.4495 11.5999 18.4495 12.1999 18.0495 12.5999L14.9496 15.6998C14.7496 15.8998 14.4996 15.9998 14.2496 15.9998C13.9996 15.9998 13.7496 15.8998 13.5496 15.6998L10.4497 12.5999C10.0497 12.2499 10.0497 11.5999 10.4497 11.1999Z" fill="white"/>
</svg>
